<mxfile host="Electron" modified="2024-01-19T15:34:42.602Z" agent="Mozilla/5.0 (X11; Linux x86_64) AppleWebKit/537.36 (KHTML, like Gecko) draw.io/22.1.21 Chrome/120.0.6099.109 Electron/28.1.0 Safari/537.36" etag="F9PhZqgkaG93Bs1_qsl2" version="22.1.21" type="device" pages="2">
  <diagram name="Deployment Diagram" id="WBkRUHpCknDhiD7sVNyb">
    <mxGraphModel dx="1434" dy="834" grid="1" gridSize="10" guides="1" tooltips="1" connect="1" arrows="1" fold="1" page="1" pageScale="1" pageWidth="850" pageHeight="1100" math="0" shadow="0">
      <root>
        <mxCell id="0" />
        <mxCell id="1" parent="0" />
        <mxCell id="lpLrwy3M_kxQSl95uY4D-2" value="AWS Account" style="points=[[0,0],[0.25,0],[0.5,0],[0.75,0],[1,0],[1,0.25],[1,0.5],[1,0.75],[1,1],[0.75,1],[0.5,1],[0.25,1],[0,1],[0,0.75],[0,0.5],[0,0.25]];outlineConnect=0;gradientColor=none;html=1;whiteSpace=wrap;fontSize=12;fontStyle=0;container=1;pointerEvents=0;collapsible=0;recursiveResize=0;shape=mxgraph.aws4.group;grIcon=mxgraph.aws4.group_account;strokeColor=#CD2264;fillColor=none;verticalAlign=top;align=left;spacingLeft=30;fontColor=#CD2264;dashed=0;" parent="1" vertex="1">
          <mxGeometry x="320" y="400" width="420" height="130" as="geometry" />
        </mxCell>
        <mxCell id="yOoY6WkdSAHG-jYZnFAZ-18" value="ML Pipeline" style="sketch=0;outlineConnect=0;fontColor=#232F3E;gradientColor=none;strokeColor=#ffffff;fillColor=#232F3E;dashed=0;verticalLabelPosition=middle;verticalAlign=bottom;align=center;html=1;whiteSpace=wrap;fontSize=10;fontStyle=1;spacing=3;shape=mxgraph.aws4.productIcon;prIcon=mxgraph.aws4.sagemaker;" parent="lpLrwy3M_kxQSl95uY4D-2" vertex="1">
          <mxGeometry x="40" y="40" width="50" height="80" as="geometry" />
        </mxCell>
        <mxCell id="yOoY6WkdSAHG-jYZnFAZ-24" style="edgeStyle=orthogonalEdgeStyle;rounded=0;orthogonalLoop=1;jettySize=auto;html=1;" parent="lpLrwy3M_kxQSl95uY4D-2" source="yOoY6WkdSAHG-jYZnFAZ-19" target="yOoY6WkdSAHG-jYZnFAZ-18" edge="1">
          <mxGeometry relative="1" as="geometry">
            <Array as="points">
              <mxPoint x="130" y="65" />
              <mxPoint x="130" y="65" />
            </Array>
          </mxGeometry>
        </mxCell>
        <mxCell id="yOoY6WkdSAHG-jYZnFAZ-25" value="Create Pipeline &lt;br&gt;Definition" style="edgeLabel;html=1;align=center;verticalAlign=middle;resizable=0;points=[];labelBackgroundColor=none;" parent="yOoY6WkdSAHG-jYZnFAZ-24" vertex="1" connectable="0">
          <mxGeometry x="0.1691" y="-1" relative="1" as="geometry">
            <mxPoint x="23" y="-14" as="offset" />
          </mxGeometry>
        </mxCell>
        <mxCell id="yOoY6WkdSAHG-jYZnFAZ-19" value="Scripts Deployment&lt;br&gt;using SageMaker SDK" style="rounded=1;whiteSpace=wrap;html=1;" parent="lpLrwy3M_kxQSl95uY4D-2" vertex="1">
          <mxGeometry x="275" y="35" width="120" height="60" as="geometry" />
        </mxCell>
        <mxCell id="yOoY6WkdSAHG-jYZnFAZ-1" value="&lt;h1&gt;Data Infrastructure Stack&lt;/h1&gt;&lt;p&gt;&lt;span style=&quot;background-color: initial;&quot;&gt;Contains resources necessary to create and run data jobs. These resources are shared between the ML pipeline stacks.&lt;/span&gt;&lt;/p&gt;" style="text;html=1;strokeColor=none;fillColor=none;spacing=5;spacingTop=-20;whiteSpace=wrap;overflow=hidden;rounded=0;" parent="1" vertex="1">
          <mxGeometry x="40" y="240" width="260" height="140" as="geometry" />
        </mxCell>
        <mxCell id="yOoY6WkdSAHG-jYZnFAZ-2" value="&lt;h1&gt;ML Project Stack&lt;/h1&gt;&lt;p&gt;This stack deploys necessary resources and pipelines to build your data and ML models in sagemaker.&lt;/p&gt;" style="text;html=1;strokeColor=none;fillColor=none;spacing=5;spacingTop=-20;whiteSpace=wrap;overflow=hidden;rounded=0;" parent="1" vertex="1">
          <mxGeometry x="40" y="400" width="260" height="120" as="geometry" />
        </mxCell>
        <mxCell id="yOoY6WkdSAHG-jYZnFAZ-3" value="&lt;h1&gt;VPC Stack (optional)&lt;/h1&gt;&lt;p&gt;&lt;span style=&quot;background-color: initial;&quot;&gt;AWS SageMaker domain must be associated to a VPC. If you don&#39;t already have a VPC in your account, this stack will create and configure one for you.&lt;/span&gt;&lt;/p&gt;" style="text;html=1;strokeColor=none;fillColor=none;spacing=5;spacingTop=-20;whiteSpace=wrap;overflow=hidden;rounded=0;" parent="1" vertex="1">
          <mxGeometry x="40" y="40" width="260" height="120" as="geometry" />
        </mxCell>
        <mxCell id="yOoY6WkdSAHG-jYZnFAZ-4" value="VPC Stack" style="points=[[0,0],[0.25,0],[0.5,0],[0.75,0],[1,0],[1,0.25],[1,0.5],[1,0.75],[1,1],[0.75,1],[0.5,1],[0.25,1],[0,1],[0,0.75],[0,0.5],[0,0.25]];outlineConnect=0;gradientColor=none;html=1;whiteSpace=wrap;fontSize=12;fontStyle=0;container=1;pointerEvents=0;collapsible=0;recursiveResize=0;shape=mxgraph.aws4.group;grIcon=mxgraph.aws4.group_account;strokeColor=#CD2264;fillColor=none;verticalAlign=top;align=left;spacingLeft=30;fontColor=#CD2264;dashed=0;" parent="1" vertex="1">
          <mxGeometry x="320" y="40" width="420" height="180" as="geometry" />
        </mxCell>
        <mxCell id="yOoY6WkdSAHG-jYZnFAZ-5" value="Amazon VPC" style="sketch=0;outlineConnect=0;fontColor=#232F3E;gradientColor=none;strokeColor=#ffffff;fillColor=#232F3E;dashed=0;verticalLabelPosition=middle;verticalAlign=bottom;align=center;html=1;whiteSpace=wrap;fontSize=10;fontStyle=1;spacing=3;shape=mxgraph.aws4.productIcon;prIcon=mxgraph.aws4.vpc;" parent="yOoY6WkdSAHG-jYZnFAZ-4" vertex="1">
          <mxGeometry x="30" y="40" width="50" height="80" as="geometry" />
        </mxCell>
        <mxCell id="yOoY6WkdSAHG-jYZnFAZ-6" value="Public subnet" style="points=[[0,0],[0.25,0],[0.5,0],[0.75,0],[1,0],[1,0.25],[1,0.5],[1,0.75],[1,1],[0.75,1],[0.5,1],[0.25,1],[0,1],[0,0.75],[0,0.5],[0,0.25]];outlineConnect=0;gradientColor=none;html=1;whiteSpace=wrap;fontSize=12;fontStyle=0;container=1;pointerEvents=0;collapsible=0;recursiveResize=0;shape=mxgraph.aws4.group;grIcon=mxgraph.aws4.group_security_group;grStroke=0;strokeColor=#248814;fillColor=#E9F3E6;verticalAlign=top;align=left;spacingLeft=30;fontColor=#248814;dashed=0;" parent="yOoY6WkdSAHG-jYZnFAZ-4" vertex="1">
          <mxGeometry x="140" y="20" width="260" height="40" as="geometry" />
        </mxCell>
        <mxCell id="yOoY6WkdSAHG-jYZnFAZ-7" value="Private subnet" style="points=[[0,0],[0.25,0],[0.5,0],[0.75,0],[1,0],[1,0.25],[1,0.5],[1,0.75],[1,1],[0.75,1],[0.5,1],[0.25,1],[0,1],[0,0.75],[0,0.5],[0,0.25]];outlineConnect=0;gradientColor=none;html=1;whiteSpace=wrap;fontSize=12;fontStyle=0;container=1;pointerEvents=0;collapsible=0;recursiveResize=0;shape=mxgraph.aws4.group;grIcon=mxgraph.aws4.group_security_group;grStroke=0;strokeColor=#147EBA;fillColor=#E6F2F8;verticalAlign=top;align=left;spacingLeft=30;fontColor=#147EBA;dashed=0;" parent="yOoY6WkdSAHG-jYZnFAZ-4" vertex="1">
          <mxGeometry x="140" y="70" width="260" height="40" as="geometry" />
        </mxCell>
        <mxCell id="yOoY6WkdSAHG-jYZnFAZ-8" value="Isolated subnet" style="points=[[0,0],[0.25,0],[0.5,0],[0.75,0],[1,0],[1,0.25],[1,0.5],[1,0.75],[1,1],[0.75,1],[0.5,1],[0.25,1],[0,1],[0,0.75],[0,0.5],[0,0.25]];outlineConnect=0;gradientColor=none;html=1;whiteSpace=wrap;fontSize=12;fontStyle=0;container=1;pointerEvents=0;collapsible=0;recursiveResize=0;shape=mxgraph.aws4.group;grIcon=mxgraph.aws4.group_security_group;grStroke=0;strokeColor=#147EBA;fillColor=#E6F2F8;verticalAlign=top;align=left;spacingLeft=30;fontColor=#147EBA;dashed=0;" parent="yOoY6WkdSAHG-jYZnFAZ-4" vertex="1">
          <mxGeometry x="140" y="120" width="260" height="40" as="geometry" />
        </mxCell>
        <mxCell id="yOoY6WkdSAHG-jYZnFAZ-10" value="Data Infrastructure Stack" style="points=[[0,0],[0.25,0],[0.5,0],[0.75,0],[1,0],[1,0.25],[1,0.5],[1,0.75],[1,1],[0.75,1],[0.5,1],[0.25,1],[0,1],[0,0.75],[0,0.5],[0,0.25]];outlineConnect=0;gradientColor=none;html=1;whiteSpace=wrap;fontSize=12;fontStyle=0;container=1;pointerEvents=0;collapsible=0;recursiveResize=0;shape=mxgraph.aws4.group;grIcon=mxgraph.aws4.group_account;strokeColor=#CD2264;fillColor=none;verticalAlign=top;align=left;spacingLeft=30;fontColor=#CD2264;dashed=0;" parent="1" vertex="1">
          <mxGeometry x="320" y="240" width="420" height="140" as="geometry" />
        </mxCell>
        <mxCell id="yOoY6WkdSAHG-jYZnFAZ-11" value="Data Storage Bucket" style="sketch=0;outlineConnect=0;fontColor=#232F3E;gradientColor=none;strokeColor=#ffffff;fillColor=#232F3E;dashed=0;verticalLabelPosition=middle;verticalAlign=bottom;align=center;html=1;whiteSpace=wrap;fontSize=10;fontStyle=1;spacing=3;shape=mxgraph.aws4.productIcon;prIcon=mxgraph.aws4.s3;" parent="yOoY6WkdSAHG-jYZnFAZ-10" vertex="1">
          <mxGeometry x="40" y="30" width="50" height="90" as="geometry" />
        </mxCell>
        <mxCell id="yOoY6WkdSAHG-jYZnFAZ-12" value="SageMaker Domain" style="sketch=0;outlineConnect=0;fontColor=#232F3E;gradientColor=none;strokeColor=#ffffff;fillColor=#232F3E;dashed=0;verticalLabelPosition=middle;verticalAlign=bottom;align=center;html=1;whiteSpace=wrap;fontSize=10;fontStyle=1;spacing=3;shape=mxgraph.aws4.productIcon;prIcon=mxgraph.aws4.sagemaker;" parent="yOoY6WkdSAHG-jYZnFAZ-10" vertex="1">
          <mxGeometry x="170" y="30" width="50" height="88.5" as="geometry" />
        </mxCell>
        <mxCell id="yOoY6WkdSAHG-jYZnFAZ-13" style="edgeStyle=orthogonalEdgeStyle;rounded=0;orthogonalLoop=1;jettySize=auto;html=1;" parent="yOoY6WkdSAHG-jYZnFAZ-10" source="yOoY6WkdSAHG-jYZnFAZ-14" target="yOoY6WkdSAHG-jYZnFAZ-12" edge="1">
          <mxGeometry relative="1" as="geometry">
            <Array as="points">
              <mxPoint x="260" y="60" />
              <mxPoint x="260" y="60" />
            </Array>
          </mxGeometry>
        </mxCell>
        <mxCell id="yOoY6WkdSAHG-jYZnFAZ-28" value="Uses as Storage&lt;br&gt;for Code" style="edgeLabel;html=1;align=center;verticalAlign=middle;resizable=0;points=[];" parent="yOoY6WkdSAHG-jYZnFAZ-13" vertex="1" connectable="0">
          <mxGeometry x="-0.2713" y="-1" relative="1" as="geometry">
            <mxPoint x="-12" y="-18" as="offset" />
          </mxGeometry>
        </mxCell>
        <mxCell id="yOoY6WkdSAHG-jYZnFAZ-14" value="Sagemaker&lt;br&gt;Source Bucket" style="sketch=0;outlineConnect=0;fontColor=#232F3E;gradientColor=none;strokeColor=#ffffff;fillColor=#232F3E;dashed=0;verticalLabelPosition=middle;verticalAlign=bottom;align=center;html=1;whiteSpace=wrap;fontSize=10;fontStyle=1;spacing=3;shape=mxgraph.aws4.productIcon;prIcon=mxgraph.aws4.s3;" parent="yOoY6WkdSAHG-jYZnFAZ-10" vertex="1">
          <mxGeometry x="310" y="30" width="50" height="100" as="geometry" />
        </mxCell>
        <mxCell id="yOoY6WkdSAHG-jYZnFAZ-21" style="edgeStyle=orthogonalEdgeStyle;rounded=0;orthogonalLoop=1;jettySize=auto;html=1;" parent="1" source="yOoY6WkdSAHG-jYZnFAZ-19" target="yOoY6WkdSAHG-jYZnFAZ-14" edge="1">
          <mxGeometry relative="1" as="geometry" />
        </mxCell>
        <mxCell id="yOoY6WkdSAHG-jYZnFAZ-22" value="Deploy To" style="edgeLabel;html=1;align=center;verticalAlign=middle;resizable=0;points=[];" parent="yOoY6WkdSAHG-jYZnFAZ-21" vertex="1" connectable="0">
          <mxGeometry x="-0.0557" y="-2" relative="1" as="geometry">
            <mxPoint x="-2" y="6" as="offset" />
          </mxGeometry>
        </mxCell>
        <mxCell id="yOoY6WkdSAHG-jYZnFAZ-26" style="edgeStyle=orthogonalEdgeStyle;rounded=0;orthogonalLoop=1;jettySize=auto;html=1;" parent="1" source="yOoY6WkdSAHG-jYZnFAZ-12" target="yOoY6WkdSAHG-jYZnFAZ-5" edge="1">
          <mxGeometry relative="1" as="geometry">
            <Array as="points">
              <mxPoint x="515" y="230" />
              <mxPoint x="375" y="230" />
            </Array>
          </mxGeometry>
        </mxCell>
        <mxCell id="yOoY6WkdSAHG-jYZnFAZ-27" value="Located In" style="edgeLabel;html=1;align=center;verticalAlign=middle;resizable=0;points=[];" parent="yOoY6WkdSAHG-jYZnFAZ-26" vertex="1" connectable="0">
          <mxGeometry x="-0.3117" y="-2" relative="1" as="geometry">
            <mxPoint x="-29" y="-8" as="offset" />
          </mxGeometry>
        </mxCell>
      </root>
    </mxGraphModel>
  </diagram>
  <diagram id="rmC3b6iuNlhqnr8y_6fG" name="Deployment Flow">
    <mxGraphModel dx="819" dy="477" grid="1" gridSize="10" guides="1" tooltips="1" connect="1" arrows="1" fold="1" page="1" pageScale="1" pageWidth="850" pageHeight="1100" math="0" shadow="0">
      <root>
        <mxCell id="0" />
        <mxCell id="1" parent="0" />
        <mxCell id="Mcwlu-TL0VABgnIYWSKj-13" value="Deployment Flow" style="fillColor=none;strokeColor=#5A6C86;dashed=1;verticalAlign=top;fontStyle=0;fontColor=#5A6C86;whiteSpace=wrap;html=1;" parent="1" vertex="1">
          <mxGeometry x="110" y="50" width="530" height="230" as="geometry" />
        </mxCell>
        <mxCell id="Mcwlu-TL0VABgnIYWSKj-2" style="edgeStyle=orthogonalEdgeStyle;rounded=0;orthogonalLoop=1;jettySize=auto;html=1;entryX=0.5;entryY=0;entryDx=0;entryDy=0;" parent="1" source="oypW1SamD3mnFrEO3CbZ-1" target="Mcwlu-TL0VABgnIYWSKj-1" edge="1">
          <mxGeometry relative="1" as="geometry">
            <Array as="points">
              <mxPoint x="400" y="140" />
              <mxPoint x="220" y="140" />
            </Array>
          </mxGeometry>
        </mxCell>
        <mxCell id="Mcwlu-TL0VABgnIYWSKj-8" value="1. Configuration" style="edgeLabel;html=1;align=center;verticalAlign=middle;resizable=0;points=[];" parent="Mcwlu-TL0VABgnIYWSKj-2" vertex="1" connectable="0">
          <mxGeometry x="-0.1978" y="1" relative="1" as="geometry">
            <mxPoint x="-12" y="-11" as="offset" />
          </mxGeometry>
        </mxCell>
        <mxCell id="Mcwlu-TL0VABgnIYWSKj-5" style="edgeStyle=orthogonalEdgeStyle;rounded=0;orthogonalLoop=1;jettySize=auto;html=1;entryX=0;entryY=0.5;entryDx=0;entryDy=0;" parent="1" source="oypW1SamD3mnFrEO3CbZ-1" target="Mcwlu-TL0VABgnIYWSKj-4" edge="1">
          <mxGeometry relative="1" as="geometry" />
        </mxCell>
        <mxCell id="Mcwlu-TL0VABgnIYWSKj-11" value="4. Deploy&lt;br&gt;Stack" style="edgeLabel;html=1;align=center;verticalAlign=middle;resizable=0;points=[];" parent="Mcwlu-TL0VABgnIYWSKj-5" vertex="1" connectable="0">
          <mxGeometry x="-0.3381" y="1" relative="1" as="geometry">
            <mxPoint x="-3" y="-21" as="offset" />
          </mxGeometry>
        </mxCell>
        <mxCell id="oypW1SamD3mnFrEO3CbZ-1" value="AWS CDK&lt;br&gt;ML Project" style="rounded=1;whiteSpace=wrap;html=1;" parent="1" vertex="1">
          <mxGeometry x="360" y="150" width="80" height="40" as="geometry" />
        </mxCell>
        <mxCell id="Mcwlu-TL0VABgnIYWSKj-3" style="edgeStyle=orthogonalEdgeStyle;rounded=0;orthogonalLoop=1;jettySize=auto;html=1;entryX=0.5;entryY=1;entryDx=0;entryDy=0;" parent="1" source="Mcwlu-TL0VABgnIYWSKj-1" target="oypW1SamD3mnFrEO3CbZ-1" edge="1">
          <mxGeometry relative="1" as="geometry">
            <Array as="points">
              <mxPoint x="220" y="210" />
              <mxPoint x="400" y="210" />
            </Array>
          </mxGeometry>
        </mxCell>
        <mxCell id="Mcwlu-TL0VABgnIYWSKj-9" value="3. Pipeline Definition" style="edgeLabel;html=1;align=center;verticalAlign=middle;resizable=0;points=[];" parent="Mcwlu-TL0VABgnIYWSKj-3" vertex="1" connectable="0">
          <mxGeometry x="-0.0446" relative="1" as="geometry">
            <mxPoint x="5" y="-10" as="offset" />
          </mxGeometry>
        </mxCell>
        <mxCell id="Mcwlu-TL0VABgnIYWSKj-7" style="edgeStyle=orthogonalEdgeStyle;rounded=0;orthogonalLoop=1;jettySize=auto;html=1;entryX=0;entryY=0.5;entryDx=0;entryDy=0;" parent="1" source="Mcwlu-TL0VABgnIYWSKj-1" target="Mcwlu-TL0VABgnIYWSKj-6" edge="1">
          <mxGeometry relative="1" as="geometry">
            <Array as="points">
              <mxPoint x="210" y="245" />
            </Array>
          </mxGeometry>
        </mxCell>
        <mxCell id="Mcwlu-TL0VABgnIYWSKj-10" value="2. Scripts and Resources" style="edgeLabel;html=1;align=center;verticalAlign=middle;resizable=0;points=[];" parent="Mcwlu-TL0VABgnIYWSKj-7" vertex="1" connectable="0">
          <mxGeometry x="0.3433" y="2" relative="1" as="geometry">
            <mxPoint x="-77" y="-13" as="offset" />
          </mxGeometry>
        </mxCell>
        <mxCell id="Mcwlu-TL0VABgnIYWSKj-1" value="SageMaker SDK" style="rounded=1;whiteSpace=wrap;html=1;" parent="1" vertex="1">
          <mxGeometry x="160" y="170" width="120" height="20" as="geometry" />
        </mxCell>
        <mxCell id="Mcwlu-TL0VABgnIYWSKj-4" value="CloudFormation" style="rounded=1;whiteSpace=wrap;html=1;" parent="1" vertex="1">
          <mxGeometry x="500" y="155" width="100" height="30" as="geometry" />
        </mxCell>
        <mxCell id="Mcwlu-TL0VABgnIYWSKj-6" value="Source S3 Bucket" style="rounded=1;whiteSpace=wrap;html=1;" parent="1" vertex="1">
          <mxGeometry x="500" y="230" width="100" height="30" as="geometry" />
        </mxCell>
        <mxCell id="Mcwlu-TL0VABgnIYWSKj-12" value="AWS Cloud" style="points=[[0,0],[0.25,0],[0.5,0],[0.75,0],[1,0],[1,0.25],[1,0.5],[1,0.75],[1,1],[0.75,1],[0.5,1],[0.25,1],[0,1],[0,0.75],[0,0.5],[0,0.25]];outlineConnect=0;gradientColor=none;html=1;whiteSpace=wrap;fontSize=12;fontStyle=0;container=1;pointerEvents=0;collapsible=0;recursiveResize=0;shape=mxgraph.aws4.group;grIcon=mxgraph.aws4.group_aws_cloud_alt;strokeColor=#232F3E;fillColor=none;verticalAlign=top;align=left;spacingLeft=30;fontColor=#232F3E;dashed=0;" parent="1" vertex="1">
          <mxGeometry x="485" y="112" width="140" height="160" as="geometry" />
        </mxCell>
        <mxCell id="Mcwlu-TL0VABgnIYWSKj-14" value="Start" style="ellipse;whiteSpace=wrap;html=1;aspect=fixed;" parent="1" vertex="1">
          <mxGeometry x="400" y="90" width="40" height="40" as="geometry" />
        </mxCell>
        <mxCell id="Mcwlu-TL0VABgnIYWSKj-15" style="edgeStyle=orthogonalEdgeStyle;rounded=0;orthogonalLoop=1;jettySize=auto;html=1;entryX=0.75;entryY=0;entryDx=0;entryDy=0;" parent="1" source="Mcwlu-TL0VABgnIYWSKj-14" target="oypW1SamD3mnFrEO3CbZ-1" edge="1">
          <mxGeometry relative="1" as="geometry" />
        </mxCell>
      </root>
    </mxGraphModel>
  </diagram>
</mxfile>
